<svg width="234" height="67" viewBox="0 0 234 67" fill="none" xmlns="http://www.w3.org/2000/svg">
<g filter="url(#filter0_dd_17_44)">
<rect x="3" y="3" width="228" height="59" rx="10" fill="#0D606F" shape-rendering="crispEdges"/>
<path d="M43.132 41.764C41.82 41.764 40.58 41.54 39.412 41.092C38.26 40.628 37.148 39.948 36.076 39.052L37.636 36.94C38.724 37.82 39.692 38.452 40.54 38.836C41.404 39.204 42.324 39.388 43.3 39.388C44.036 39.388 44.684 39.276 45.244 39.052C45.82 38.812 46.26 38.492 46.564 38.092C46.884 37.692 47.044 37.228 47.044 36.7C47.044 36.012 46.812 35.492 46.348 35.14C45.9 34.772 45.116 34.492 43.996 34.3L40.9 33.772C39.444 33.516 38.356 33.028 37.636 32.308C36.932 31.572 36.58 30.636 36.58 29.5C36.58 28.492 36.836 27.612 37.348 26.86C37.86 26.092 38.572 25.5 39.484 25.084C40.412 24.652 41.508 24.436 42.772 24.436C44.036 24.436 45.236 24.62 46.372 24.988C47.508 25.356 48.556 25.892 49.516 26.596L48.052 28.756C47.204 28.116 46.332 27.636 45.436 27.316C44.54 26.98 43.62 26.812 42.676 26.812C42.004 26.812 41.412 26.916 40.9 27.124C40.404 27.332 40.012 27.62 39.724 27.988C39.452 28.356 39.316 28.764 39.316 29.212C39.316 29.82 39.516 30.292 39.916 30.628C40.332 30.948 40.996 31.188 41.908 31.348L44.908 31.852C46.604 32.156 47.852 32.684 48.652 33.436C49.468 34.188 49.876 35.204 49.876 36.484C49.876 37.508 49.588 38.42 49.012 39.22C48.452 40.02 47.668 40.644 46.66 41.092C45.652 41.54 44.476 41.764 43.132 41.764ZM57.2937 41.74C56.0777 41.74 55.1577 41.46 54.5337 40.9C53.9097 40.324 53.5977 39.484 53.5977 38.38V31.636H51.1977V29.476H53.5977V26.164L56.3097 25.588V29.476H59.6457V31.636H56.3097V37.78C56.3097 38.372 56.4377 38.796 56.6937 39.052C56.9497 39.292 57.3817 39.412 57.9897 39.412C58.2617 39.412 58.5097 39.396 58.7337 39.364C58.9737 39.316 59.2697 39.236 59.6217 39.124V41.404C59.2857 41.516 58.9017 41.596 58.4697 41.644C58.0537 41.708 57.6617 41.74 57.2937 41.74ZM65.6952 41.716C64.8632 41.716 64.1192 41.564 63.4632 41.26C62.8232 40.94 62.3192 40.508 61.9512 39.964C61.5992 39.404 61.4232 38.764 61.4232 38.044C61.4232 37.324 61.6072 36.7 61.9752 36.172C62.3592 35.644 62.8952 35.236 63.5832 34.948C64.2712 34.66 65.0872 34.516 66.0312 34.516C66.5912 34.516 67.1432 34.58 67.6872 34.708C68.2312 34.82 68.7592 35.012 69.2712 35.284V33.94C69.2712 33.14 69.0392 32.54 68.5752 32.14C68.1272 31.74 67.4392 31.54 66.5112 31.54C66.0152 31.54 65.4792 31.62 64.9032 31.78C64.3432 31.924 63.7112 32.156 63.0072 32.476L62.0472 30.508C63.8072 29.692 65.4712 29.284 67.0392 29.284C68.6072 29.284 69.8152 29.668 70.6632 30.436C71.5272 31.188 71.9592 32.26 71.9592 33.652V41.5H69.2712V40.252C68.7592 40.748 68.2072 41.116 67.6152 41.356C67.0232 41.596 66.3832 41.716 65.6952 41.716ZM63.9672 37.996C63.9672 38.556 64.1912 38.996 64.6392 39.316C65.0872 39.636 65.6872 39.796 66.4392 39.796C66.9832 39.796 67.4872 39.716 67.9512 39.556C68.4312 39.38 68.8712 39.124 69.2712 38.788V36.844C68.8552 36.652 68.4232 36.508 67.9752 36.412C67.5272 36.316 67.0392 36.268 66.5112 36.268C65.7272 36.268 65.1032 36.42 64.6392 36.724C64.1912 37.028 63.9672 37.452 63.9672 37.996ZM75.2425 41.5V29.476H77.9545V32.068C78.3065 31.156 78.7625 30.46 79.3225 29.98C79.8825 29.5 80.5305 29.26 81.2665 29.26C81.4905 29.276 81.6905 29.3 81.8665 29.332C82.0425 29.348 82.2345 29.404 82.4425 29.5V31.876C82.2345 31.78 81.9945 31.708 81.7225 31.66C81.4665 31.612 81.2105 31.588 80.9545 31.588C80.2985 31.588 79.7065 31.764 79.1785 32.116C78.6665 32.468 78.2585 32.956 77.9545 33.58V41.5H75.2425ZM89.8484 41.74C88.6324 41.74 87.7124 41.46 87.0884 40.9C86.4644 40.324 86.1524 39.484 86.1524 38.38V31.636H83.7524V29.476H86.1524V26.164L88.8644 25.588V29.476H92.2004V31.636H88.8644V37.78C88.8644 38.372 88.9924 38.796 89.2484 39.052C89.5044 39.292 89.9364 39.412 90.5444 39.412C90.8164 39.412 91.0644 39.396 91.2884 39.364C91.5284 39.316 91.8244 39.236 92.1764 39.124V41.404C91.8404 41.516 91.4564 41.596 91.0244 41.644C90.6084 41.708 90.2164 41.74 89.8484 41.74ZM100.329 41.5V24.7H107.841C108.977 24.7 109.961 24.924 110.793 25.372C111.641 25.804 112.297 26.412 112.761 27.196C113.225 27.98 113.457 28.892 113.457 29.932C113.457 30.924 113.225 31.812 112.761 32.596C112.297 33.38 111.641 33.996 110.793 34.444C109.961 34.876 108.977 35.092 107.841 35.092H103.209V41.5H100.329ZM103.209 32.74H107.385C108.409 32.74 109.193 32.484 109.737 31.972C110.281 31.444 110.553 30.756 110.553 29.908C110.553 29.076 110.281 28.404 109.737 27.892C109.193 27.38 108.417 27.124 107.409 27.124H103.209V32.74ZM116.282 41.5V24.292L118.994 23.812V41.5H116.282ZM125.976 41.716C125.144 41.716 124.4 41.564 123.744 41.26C123.104 40.94 122.6 40.508 122.232 39.964C121.88 39.404 121.704 38.764 121.704 38.044C121.704 37.324 121.888 36.7 122.256 36.172C122.64 35.644 123.176 35.236 123.864 34.948C124.552 34.66 125.368 34.516 126.312 34.516C126.872 34.516 127.424 34.58 127.968 34.708C128.512 34.82 129.04 35.012 129.552 35.284V33.94C129.552 33.14 129.32 32.54 128.856 32.14C128.408 31.74 127.72 31.54 126.792 31.54C126.296 31.54 125.76 31.62 125.184 31.78C124.624 31.924 123.992 32.156 123.288 32.476L122.328 30.508C124.088 29.692 125.752 29.284 127.32 29.284C128.888 29.284 130.096 29.668 130.944 30.436C131.808 31.188 132.24 32.26 132.24 33.652V41.5H129.552V40.252C129.04 40.748 128.488 41.116 127.896 41.356C127.304 41.596 126.664 41.716 125.976 41.716ZM124.248 37.996C124.248 38.556 124.472 38.996 124.92 39.316C125.368 39.636 125.968 39.796 126.72 39.796C127.264 39.796 127.768 39.716 128.232 39.556C128.712 39.38 129.152 39.124 129.552 38.788V36.844C129.136 36.652 128.704 36.508 128.256 36.412C127.808 36.316 127.32 36.268 126.792 36.268C126.008 36.268 125.384 36.42 124.92 36.724C124.472 37.028 124.248 37.452 124.248 37.996ZM135.524 41.5V29.476H138.236V31.444C138.7 30.724 139.252 30.188 139.892 29.836C140.532 29.468 141.244 29.284 142.028 29.284C142.86 29.284 143.588 29.468 144.212 29.836C144.836 30.188 145.324 30.684 145.676 31.324C146.044 31.964 146.228 32.716 146.228 33.58V41.5H143.492V34.348C143.492 33.468 143.252 32.772 142.772 32.26C142.292 31.732 141.652 31.468 140.852 31.468C140.308 31.468 139.812 31.596 139.364 31.852C138.932 32.092 138.556 32.452 138.236 32.932V41.5H135.524ZM149.493 41.5V29.476H152.205V31.444C152.669 30.724 153.221 30.188 153.861 29.836C154.501 29.468 155.213 29.284 155.997 29.284C156.829 29.284 157.557 29.468 158.181 29.836C158.805 30.188 159.293 30.684 159.645 31.324C160.013 31.964 160.197 32.716 160.197 33.58V41.5H157.461V34.348C157.461 33.468 157.221 32.772 156.741 32.26C156.261 31.732 155.621 31.468 154.821 31.468C154.277 31.468 153.781 31.596 153.333 31.852C152.901 32.092 152.525 32.452 152.205 32.932V41.5H149.493ZM163.437 41.5V29.476H166.149V41.5H163.437ZM164.805 27.028C164.341 27.028 163.941 26.868 163.605 26.548C163.285 26.212 163.125 25.82 163.125 25.372C163.125 24.908 163.285 24.516 163.605 24.196C163.941 23.86 164.341 23.692 164.805 23.692C165.269 23.692 165.661 23.86 165.981 24.196C166.317 24.516 166.485 24.9 166.485 25.348C166.485 25.812 166.317 26.212 165.981 26.548C165.661 26.868 165.269 27.028 164.805 27.028ZM169.508 41.5V29.476H172.22V31.444C172.684 30.724 173.236 30.188 173.876 29.836C174.516 29.468 175.228 29.284 176.012 29.284C176.844 29.284 177.572 29.468 178.196 29.836C178.82 30.188 179.308 30.684 179.66 31.324C180.028 31.964 180.212 32.716 180.212 33.58V41.5H177.476V34.348C177.476 33.468 177.236 32.772 176.756 32.26C176.276 31.732 175.636 31.468 174.836 31.468C174.292 31.468 173.796 31.596 173.348 31.852C172.916 32.092 172.54 32.452 172.22 32.932V41.5H169.508ZM189.093 46.756C188.245 46.756 187.405 46.652 186.573 46.444C185.741 46.236 184.973 45.948 184.269 45.58L185.205 43.588C185.925 43.924 186.581 44.172 187.173 44.332C187.781 44.508 188.381 44.596 188.973 44.596C189.981 44.596 190.741 44.372 191.253 43.924C191.781 43.476 192.045 42.812 192.045 41.932V39.892C191.613 40.42 191.077 40.836 190.437 41.14C189.797 41.428 189.101 41.572 188.349 41.572C187.341 41.572 186.429 41.3 185.613 40.756C184.797 40.196 184.141 39.46 183.645 38.548C183.165 37.62 182.925 36.588 182.925 35.452C182.925 34.316 183.173 33.292 183.669 32.38C184.165 31.468 184.837 30.74 185.685 30.196C186.549 29.652 187.501 29.38 188.541 29.38C189.245 29.38 189.901 29.516 190.509 29.788C191.117 30.06 191.637 30.46 192.069 30.988V29.476H194.757V41.932C194.757 43.484 194.269 44.676 193.293 45.508C192.317 46.34 190.917 46.756 189.093 46.756ZM189.189 39.316C189.765 39.316 190.301 39.204 190.797 38.98C191.293 38.74 191.709 38.412 192.045 37.996V32.956C191.693 32.54 191.269 32.22 190.773 31.996C190.277 31.772 189.749 31.66 189.189 31.66C188.501 31.66 187.885 31.828 187.341 32.164C186.813 32.484 186.389 32.932 186.069 33.508C185.749 34.068 185.589 34.724 185.589 35.476C185.589 36.196 185.749 36.852 186.069 37.444C186.389 38.02 186.813 38.476 187.341 38.812C187.885 39.148 188.501 39.316 189.189 39.316Z" fill="white"/>
</g>
<defs>
<filter id="filter0_dd_17_44" x="0" y="0" width="234" height="67" filterUnits="userSpaceOnUse" color-interpolation-filters="sRGB">
<feFlood flood-opacity="0" result="BackgroundImageFix"/>
<feColorMatrix in="SourceAlpha" type="matrix" values="0 0 0 0 0 0 0 0 0 0 0 0 0 0 0 0 0 0 127 0" result="hardAlpha"/>
<feOffset dy="2"/>
<feGaussianBlur stdDeviation="1.5"/>
<feComposite in2="hardAlpha" operator="out"/>
<feColorMatrix type="matrix" values="0 0 0 0 0.0509804 0 0 0 0 0.376471 0 0 0 0 0.435294 0 0 0 0.16 0"/>
<feBlend mode="normal" in2="BackgroundImageFix" result="effect1_dropShadow_17_44"/>
<feColorMatrix in="SourceAlpha" type="matrix" values="0 0 0 0 0 0 0 0 0 0 0 0 0 0 0 0 0 0 127 0" result="hardAlpha"/>
<feOffset/>
<feGaussianBlur stdDeviation="1.5"/>
<feComposite in2="hardAlpha" operator="out"/>
<feColorMatrix type="matrix" values="0 0 0 0 0.0509804 0 0 0 0 0.376471 0 0 0 0 0.435294 0 0 0 0.08 0"/>
<feBlend mode="normal" in2="effect1_dropShadow_17_44" result="effect2_dropShadow_17_44"/>
<feBlend mode="normal" in="SourceGraphic" in2="effect2_dropShadow_17_44" result="shape"/>
</filter>
</defs>
</svg>
